PathFileType	4	(X/Y/Z)	/Users/itak/Documents/Research/Walk-IL/dataset/trc/00252_00009.trc
DataRate	CameraRate	NumFrames	NumMarkers	Units	OrigDataRate	OrigDataStartFrame	OrigNumFrames
100.000000	100.000000	4	53	mm	100.000000	180	482
Frame#	Time	RPSI			LPSI			L3			STRN			T10			C7			CLAV			RBAK			LBAK			LSHO			LUPA			LAEL			LAOL			LWTS			LWPS			LFRA			LIFD			LHPS			LHTS			RSHO			RUPA			RAEL			RAOL			RWTS			RWPS			RFRA			RIFD			RHTS			RHPS			RBHD			LFHD			RFHD			LBHD			LHIP			RHIP			RASI			LASI			LKNE			LTHI			LANK			LTIP			LTOE			LMT1			LMT5			LHEE			RKNE			RTHI			RANK			RTIP			RTOE			RMT1			RMT5			RHEE			
		X1	Y1	Z1	X2	Y2	Z2	X3	Y3	Z3	X4	Y4	Z4	X5	Y5	Z5	X6	Y6	Z6	X7	Y7	Z7	X8	Y8	Z8	X9	Y9	Z9	X10	Y10	Z10	X11	Y11	Z11	X12	Y12	Z12	X13	Y13	Z13	X14	Y14	Z14	X15	Y15	Z15	X16	Y16	Z16	X17	Y17	Z17	X18	Y18	Z18	X19	Y19	Z19	X20	Y20	Z20	X21	Y21	Z21	X22	Y22	Z22	X23	Y23	Z23	X24	Y24	Z24	X25	Y25	Z25	X26	Y26	Z26	X27	Y27	Z27	X28	Y28	Z28	X29	Y29	Z29	X30	Y30	Z30	X31	Y31	Z31	X32	Y32	Z32	X33	Y33	Z33	X34	Y34	Z34	X35	Y35	Z35	X36	Y36	Z36	X37	Y37	Z37	X38	Y38	Z38	X39	Y39	Z39	X40	Y40	Z40	X41	Y41	Z41	X42	Y42	Z42	X43	Y43	Z43	X44	Y44	Z44	X45	Y45	Z45	X46	Y46	Z46	X47	Y47	Z47	X48	Y48	Z48	X49	Y49	Z49	X50	Y50	Z50	X51	Y51	Z51	X52	Y52	Z52	X53	Y53	Z53	

181	1.8	-1096.856323242188	1023.03759765625	-331.5298767089844	-1060.897583007812	1039.121215820312	-443.8226013183594	-1074.855224609375	1117.12939453125	-410.3330688476562	-835.2694702148438	1298.690185546875	-312.9144897460938	-1068.500610351562	1243.834838867188	-410.658203125	-1004.2080078125	1503.334106445312	-394.6847534179688	-857.0518798828125	1416.8720703125	-321.0382385253906	-1101.334594726562	1364.7158203125	-362.1469421386719	-977.04150390625	1464.95166015625	-504.1188659667969	-875.1868896484375	1465.781494140625	-513.4218139648438	-854.5936279296875	1351.543579101562	-596.3289794921875	-784.4826049804688	1153.280151367188	-617.0535888671875	-862.1836547851562	1114.692626953125	-607.51171875	-659.0253295898438	971.7036743164062	-490.1138916015625	-636.6828002929688	945.2536010742188	-568.5879516601562	-724.59619140625	1061.304565429688	-605.0458984375	-575.1207275390625	803.8065795898438	-451.7664489746094	-588.6470947265625	874.5798950195312	-539.7160034179688	-579.9756469726562	899.7845458984375	-475.2073669433594	-1028.619018554688	1468.421508789062	-217.9528045654297	-1080.107543945312	1407.542602539062	-168.2244567871094	-1145.922119140625	1132.739013671875	-145.3895111083984	-1132.283813476562	1126.074340820312	-239.6002349853516	-1010.109985351562	915.120849609375	-121.0835952758789	-1088.3583984375	900.7420043945312	-89.87671661376953	-1131.573852539062	1062.81787109375	-122.1970825195312	-997.0865478515625	721.0861206054688	-121.8399505615234	-985.2288818359375	793.3698120117188	-91.67036437988281	-1056.026245117188	793.370361328125	-72.06553649902344	-992.8807983398438	1653.781616210938	-339.6820373535156	-774.5292358398438	1712.037841796875	-314.3834533691406	-827.0725708007812	1705.592407226562	-229.2942504882812	-886.2308349609375	1670.419921875	-428.9557800292969	-926.6851806640625	985.6444702148438	-556.3687133789062	-1029.967529296875	983.2923583984375	-203.575439453125	-930.10205078125	1030.451293945312	-211.9119110107422	-841.6383666992188	1024.707763671875	-479.3286437988281	-957.4071655273438	501.4993896484375	-505.5279541015625	-934.590087890625	644.6810302734375	-531.578125	-1094.028442382812	35.91401672363281	-496.7117614746094	-1033.4931640625	282.1961059570312	-514.3788452148438	-897.9113159179688	45.14234924316406	-393.0388793945312	-974.4688720703125	43.12392044067383	-367.1910400390625	-964.4204711914062	34.71638488769531	-485.8156433105469	-1165.797607421875	45.77019500732422	-461.2164001464844	-809.9708251953125	535.5411987304688	-180.3604278564453	-920.3399658203125	784.4536743164062	-165.1302337646484	-833.4878540039062	41.11212158203125	-240.9402770996094	-782.3787841796875	416.5674743652344	-193.134521484375	-635.0634765625	88.80795288085938	-196.7706451416016	-662.7415771484375	73.31751251220703	-258.4033813476562	-745.0897827148438	53.28392028808594	-174.1842041015625	-867.030517578125	38.13190841674805	-317.4679260253906	
182	1.81	-1090.280639648438	1022.027587890625	-330.1003723144531	-1054.01416015625	1038.238037109375	-442.193115234375	-1067.822631835938	1116.041870117188	-408.7994689941406	-828.7681884765625	1297.3427734375	-310.3406982421875	-1061.47119140625	1242.699462890625	-409.26904296875	-997.2227172851562	1502.174072265625	-392.7178039550781	-850.4608764648438	1415.556762695312	-318.3912963867188	-1094.42529296875	1363.529541015625	-360.8308410644531	-969.4992065429688	1463.902465820312	-502.0664672851562	-867.5291748046875	1464.624755859375	-510.7513122558594	-846.4069213867188	1350.506225585938	-593.5948486328125	-775.6618041992188	1152.494873046875	-613.8388061523438	-853.2685546875	1113.505493164062	-604.678466796875	-649.5437622070312	973.05126953125	-484.7462463378906	-626.2874755859375	946.18310546875	-562.8142700195312	-715.0748291015625	1061.11279296875	-600.8375854492188	-564.29931640625	806.2610473632812	-444.3690490722656	-577.9158935546875	876.1881713867188	-532.9825439453125	-569.923095703125	901.982666015625	-468.6462097167969	-1022.555419921875	1467.085693359375	-216.1450042724609	-1074.410278320312	1406.248901367188	-166.7974243164062	-1141.046875	1131.587646484375	-144.9981994628906	-1126.818481445312	1125.046264648438	-239.1542358398438	-1006.259704589844	913.4193115234375	-120.0031356811523	-1084.813354492188	899.27587890625	-89.45816040039062	-1127.132446289062	1061.578369140625	-121.8101119995117	-993.920654296875	719.104736328125	-121.0214614868164	-982.0730590820312	791.5264282226562	-90.54438781738281	-1053.011474609375	791.7598876953125	-71.58766937255859	-986.1409301757812	1652.571044921875	-337.4010009765625	-767.8927612304688	1710.759643554688	-311.1425476074219	-820.7879638671875	1704.25	-226.2740783691406	-879.057861328125	1669.277587890625	-426.2154846191406	-919.8230590820312	984.6976928710938	-554.4361572265625	-1023.666748046875	981.8543090820312	-202.0512542724609	-923.794189453125	1028.940307617188	-209.9616241455078	-834.670166015625	1023.404541015625	-477.1404418945312	-954.9984130859375	500.9479675292969	-504.6728210449219	-930.9500122070312	643.9022827148438	-530.565185546875	-1094.07373046875	36.12829208374023	-496.3614807128906	-1032.397583007812	282.1472473144531	-513.867431640625	-897.72314453125	44.99749374389648	-392.9591369628906	-974.3519287109375	43.03733825683594	-367.1098022460938	-964.4783325195312	34.7536506652832	-485.817626953125	-1165.845581054688	46.14380645751953	-460.79541015625	-805.1768798828125	534.04052734375	-177.9736328125	-916.0777587890625	783.009765625	-162.9423675537109	-806.98095703125	38.9149055480957	-240.3365631103516	-773.4783325195312	415.8443298339844	-190.2611389160156	-611.45166015625	92.83753967285156	-191.0580291748047	-637.0673828125	76.85807037353516	-253.4494323730469	-720.712158203125	53.64862060546875	-171.4800567626953	-838.4584350585938	35.3724479675293	-317.7010498046875	
183	1.82	-1083.600830078125	1020.967834472656	-328.5525512695312	-1047.081420898438	1037.315673828125	-440.46142578125	-1060.714111328125	1114.899536132812	-407.1553344726562	-822.1917724609375	1295.9560546875	-307.6947631835938	-1054.357666015625	1241.50146484375	-407.7737731933594	-990.20361328125	1500.964599609375	-390.6405639648438	-843.806884765625	1414.202270507812	-315.6692504882812	-1087.467895507812	1362.28125	-359.3956604003906	-961.9342041015625	1462.806518554688	-499.9061889648438	-859.850830078125	1463.407958984375	-507.99658203125	-838.2576904296875	1349.393798828125	-590.7671508789062	-766.9462280273438	1151.611450195312	-610.5159301757812	-844.454345703125	1112.2568359375	-601.7216796875	-640.3391723632812	974.1707153320312	-479.3738098144531	-616.166015625	946.9354248046875	-557.0347290039062	-705.759521484375	1060.787963867188	-596.565185546875	-553.8937377929688	808.4423217773438	-437.089111328125	-567.5499267578125	877.5797729492188	-526.2785034179688	-560.227783203125	903.9027709960938	-462.1239318847656	-1016.400939941406	1465.68896484375	-214.2193603515625	-1068.614013671875	1404.878662109375	-165.2525634765625	-1136.018676757812	1130.364013671875	-144.4796142578125	-1121.27490234375	1123.954711914062	-238.5956420898438	-1002.38134765625	911.5591430664062	-118.9138946533203	-1081.185180664062	897.7098388671875	-88.98063659667969	-1122.55224609375	1060.2578125	-121.3168792724609	-990.9387817382812	716.9517211914062	-120.2590026855469	-978.935546875	789.5059204101562	-89.47434234619141	-1049.998291015625	790.0198364257812	-71.11314392089844	-979.3619384765625	1651.3173828125	-335.0220642089844	-761.2229614257812	1709.435302734375	-307.7928466796875	-814.4575805664062	1702.85498046875	-223.1541442871094	-871.846923828125	1668.085571289062	-423.3603820800781	-912.9183349609375	983.7601318359375	-552.4008178710938	-1017.279418945312	980.3416748046875	-200.4256439208984	-917.3983154296875	1027.357055664062	-207.9231414794922	-827.684326171875	1022.056945800781	-474.900634765625	-952.2965698242188	500.3802795410156	-503.7641296386719	-927.0980224609375	643.1195068359375	-529.4931030273438	-1094.102661132812	36.32466125488281	-495.9959411621094	-1031.127563476562	282.1102600097656	-513.3087768554688	-897.5468139648438	44.84548950195312	-392.8883361816406	-974.2426147460938	42.96426773071289	-367.0435485839844	-964.5408935546875	34.78970336914062	-485.8170471191406	-1165.875122070312	46.58496856689453	-460.3574829101562	-800.6021118164062	532.2245483398438	-175.7926177978516	-911.82275390625	781.3963623046875	-160.6728973388672	-781.2906494140625	37.25541687011719	-239.5758514404297	-764.9796752929688	414.9329223632812	-187.5159912109375	-589.0263061523438	97.03125	-185.1430511474609	-612.500732421875	80.70440673828125	-248.2714996337891	-697.3222045898438	54.32570266723633	-168.6161041259766	-810.620361328125	33.32590866088867	-317.794189453125	
184	1.83	-1076.828491210938	1019.855163574219	-326.8747863769531	-1040.114379882812	1036.350830078125	-438.6221618652344	-1053.550537109375	1113.71435546875	-405.3968200683594	-815.5457763671875	1294.534301757812	-304.9727478027344	-1047.171020507812	1240.251708984375	-406.1637268066406	-983.1433715820312	1499.714965820312	-388.4469299316406	-837.090576171875	1412.811157226562	-312.8683471679688	-1080.4697265625	1360.9833984375	-357.8377990722656	-954.3389282226562	1461.672241210938	-497.6348266601562	-852.1527709960938	1462.14013671875	-505.1590270996094	-830.1472778320312	1348.218139648438	-587.8453979492188	-758.3305053710938	1150.63720703125	-607.088623046875	-835.7367553710938	1110.954833984375	-598.6437377929688	-631.391845703125	975.0648193359375	-474.0111083984375	-606.3224487304688	947.50146484375	-551.2647705078125	-696.6470336914062	1060.333251953125	-592.2372436523438	-543.9075317382812	810.3326416015625	-429.9309692382812	-557.5446166992188	878.741455078125	-519.617919921875	-550.8780517578125	905.5354614257812	-455.6607971191406	-1010.153686523438	1464.239379882812	-212.1709442138672	-1062.714965820312	1403.439208984375	-163.5841064453125	-1130.831176757812	1129.070922851562	-143.8283233642578	-1115.637817382812	1122.802978515625	-237.9170684814453	-998.468505859375	909.5490112304688	-117.8079605102539	-1077.471069335938	896.0496826171875	-88.44022369384766	-1117.823486328125	1058.862670898438	-120.7124938964844	-988.1072998046875	714.6339111328125	-119.5446624755859	-975.8085327148438	787.3191528320312	-88.46012878417969	-1046.972534179688	788.1564331054688	-70.63130950927734	-972.5401611328125	1650.0244140625	-332.5424499511719	-754.5200805664062	1708.069702148438	-304.3369445800781	-808.0797729492188	1701.415771484375	-219.9367370605469	-864.6021728515625	1666.842651367188	-420.3922119140625	-905.9705200195312	982.810302734375	-550.2771606445312	-1010.808715820312	978.7721557617188	-198.6917266845703	-910.9111328125	1025.722534179688	-205.7965850830078	-820.694091796875	1020.683471679688	-472.6170349121094	-949.2551879882812	499.7908325195312	-502.7905578613281	-922.9888916015625	642.33056640625	-528.3460693359375	-1094.115478515625	36.50578689575195	-495.6238098144531	-1029.653198242188	282.0879211425781	-512.7037963867188	-897.3872680664062	44.69148254394531	-392.8200988769531	-974.1368408203125	42.90414047241211	-366.9919128417969	-964.603515625	34.82216262817383	-485.8125305175781	-1165.891357421875	47.11393737792969	-459.9212036132812	-796.126953125	530.1412963867188	-173.8597869873047	-907.4943237304688	779.6373901367188	-158.3229522705078	-756.6492919921875	36.06544876098633	-238.6115875244141	-756.8157958984375	413.8694458007812	-184.9566345214844	-567.9400634765625	101.3340759277344	-178.9822540283203	-589.2175903320312	84.78409576416016	-242.8275299072266	-675.1134643554688	55.28125	-165.5484008789062	-783.75048828125	31.867431640625	-317.6895751953125	
